<svg xmlns="http://www.w3.org/2000/svg" xmlns:xlink="http://www.w3.org/1999/xlink" width="1920" zoomAndPan="magnify" viewBox="0 0 1440 809.999993" height="1080" preserveAspectRatio="xMidYMid meet" version="1.0"><defs><clipPath id="52fab5c73d"><path d="M 425.535156 79.621094 L 1004.9375 79.621094 L 1004.9375 479.546875 L 425.535156 479.546875 Z M 425.535156 79.621094 " clip-rule="nonzero"/></clipPath><clipPath id="37ccee1069"><path d="M 955.6875 249.246094 L 1004.9375 316.683594 L 1004.9375 348.15625 L 955.6875 293.894531 L 818.953125 348.15625 L 818.953125 316.683594 Z M 818.953125 359.851562 L 818.953125 391.339844 L 955.6875 355.175781 L 1004.9375 391.339844 L 1004.9375 359.851562 L 955.6875 310.496094 Z M 818.953125 403.035156 L 818.953125 434.523438 L 955.6875 416.425781 L 1004.9375 434.523438 L 1004.9375 403.035156 L 955.6875 371.777344 Z M 818.953125 446.21875 L 818.953125 477.703125 L 1004.9375 477.703125 L 1004.9375 446.21875 L 955.6875 433.027344 Z M 955.6875 187.964844 L 818.953125 273.5 L 818.953125 304.972656 L 955.6875 232.644531 L 1004.9375 304.972656 L 1004.9375 273.5 Z M 425.535156 341.769531 L 425.535156 368.351562 L 478.875 322.542969 L 583.371094 368.351562 L 583.371094 341.769531 L 478.875 284.808594 Z M 425.535156 378.207031 L 425.535156 404.800781 L 478.875 374.253906 L 583.371094 404.800781 L 583.371094 378.207031 L 478.875 336.546875 Z M 425.535156 414.671875 L 425.535156 441.253906 L 478.875 425.992188 L 583.371094 441.253906 L 583.371094 414.671875 L 478.875 388.289062 Z M 479.179688 440.195312 L 479.074219 440.210938 L 478.863281 440.195312 L 478.863281 440.257812 L 425.535156 451.335938 L 425.535156 477.917969 L 583.371094 477.917969 L 583.371094 451.335938 L 479.207031 440.226562 L 479.207031 440.195312 Z M 707.050781 479.230469 L 731.0625 479.230469 L 731.0625 95.636719 L 707.050781 79.621094 Z M 746.140625 479.546875 L 770.140625 479.546875 L 770.140625 121.734375 L 746.140625 105.71875 Z M 785.21875 479.546875 L 809.234375 479.546875 L 809.234375 147.832031 L 785.21875 131.800781 Z M 669.179688 479.230469 L 693.191406 479.230469 L 693.191406 79.621094 L 669.179688 95.636719 Z M 630.117188 479.546875 L 654.128906 479.546875 L 654.128906 105.71875 L 630.117188 121.734375 Z M 591.039062 479.546875 L 615.039062 479.546875 L 615.039062 131.785156 L 591.039062 147.800781 Z M 591.039062 479.546875 " clip-rule="nonzero"/></clipPath><linearGradient x1="149.596869" gradientTransform="matrix(2.135826, 0, 0, 2.138724, 425.529943, 79.619949)" y1="-10.310458" x2="131.929763" gradientUnits="userSpaceOnUse" y2="198.172712" id="5ce391b866"><stop stop-opacity="1" stop-color="rgb(84.298706%, 68.598938%, 30.198669%)" offset="0"/><stop stop-opacity="1" stop-color="rgb(84.298706%, 68.598938%, 30.198669%)" offset="0.109479"/><stop stop-opacity="1" stop-color="rgb(84.298706%, 68.598938%, 30.198669%)" offset="0.125"/><stop stop-opacity="1" stop-color="rgb(84.298706%, 68.598938%, 30.198669%)" offset="0.1875"/><stop stop-opacity="1" stop-color="rgb(84.298706%, 68.598938%, 30.198669%)" offset="0.21875"/><stop stop-opacity="1" stop-color="rgb(84.197998%, 68.49823%, 30.097961%)" offset="0.226563"/><stop stop-opacity="1" stop-color="rgb(83.998108%, 68.293762%, 29.898071%)" offset="0.234375"/><stop stop-opacity="1" stop-color="rgb(83.898926%, 67.99469%, 29.798889%)" offset="0.25"/><stop stop-opacity="1" stop-color="rgb(83.703613%, 67.799377%, 29.603577%)" offset="0.265625"/><stop stop-opacity="1" stop-color="rgb(83.503723%, 67.724609%, 29.304504%)" offset="0.273438"/><stop stop-opacity="1" stop-color="rgb(83.496094%, 67.570496%, 29.100037%)" offset="0.28125"/><stop stop-opacity="1" stop-color="rgb(83.297729%, 67.297363%, 28.999329%)" offset="0.296875"/><stop stop-opacity="1" stop-color="rgb(83.100891%, 67.100525%, 28.805542%)" offset="0.3125"/><stop stop-opacity="1" stop-color="rgb(83.001709%, 67.001343%, 28.605652%)" offset="0.320313"/><stop stop-opacity="1" stop-color="rgb(82.801819%, 66.799927%, 28.598022%)" offset="0.328125"/><stop stop-opacity="1" stop-color="rgb(82.699585%, 66.500854%, 28.401184%)" offset="0.34375"/><stop stop-opacity="1" stop-color="rgb(82.695007%, 66.297913%, 28.196716%)" offset="0.359375"/><stop stop-opacity="1" stop-color="rgb(82.545471%, 66.094971%, 27.993774%)" offset="0.375"/><stop stop-opacity="1" stop-color="rgb(82.398987%, 65.704346%, 27.799988%)" offset="0.390625"/><stop stop-opacity="1" stop-color="rgb(82.299805%, 65.504456%, 27.72522%)" offset="0.398438"/><stop stop-opacity="1" stop-color="rgb(82.099915%, 65.4953%, 27.571106%)" offset="0.40625"/><stop stop-opacity="1" stop-color="rgb(81.999207%, 65.296936%, 27.297974%)" offset="0.421875"/><stop stop-opacity="1" stop-color="rgb(81.80542%, 64.906311%, 27.101135%)" offset="0.4375"/><stop stop-opacity="1" stop-color="rgb(81.60553%, 64.704895%, 27.001953%)" offset="0.445313"/><stop stop-opacity="1" stop-color="rgb(81.5979%, 64.697266%, 26.802063%)" offset="0.453125"/><stop stop-opacity="1" stop-color="rgb(81.401062%, 64.500427%, 26.699829%)" offset="0.46875"/><stop stop-opacity="1" stop-color="rgb(81.202698%, 64.302063%, 26.597595%)" offset="0.476562"/><stop stop-opacity="1" stop-color="rgb(81.199646%, 64.294434%, 26.397705%)" offset="0.484375"/><stop stop-opacity="1" stop-color="rgb(81.199646%, 64.094543%, 26.298523%)" offset="0.5"/><stop stop-opacity="1" stop-color="rgb(81.004333%, 63.703918%, 26.10321%)" offset="0.515625"/><stop stop-opacity="1" stop-color="rgb(80.799866%, 63.500977%, 25.900269%)" offset="0.53125"/><stop stop-opacity="1" stop-color="rgb(80.596924%, 63.298035%, 25.697327%)" offset="0.546875"/><stop stop-opacity="1" stop-color="rgb(80.400085%, 62.90741%, 25.500488%)" offset="0.5625"/><stop stop-opacity="1" stop-color="rgb(80.300903%, 62.705994%, 25.401306%)" offset="0.570313"/><stop stop-opacity="1" stop-color="rgb(80.101013%, 62.698364%, 25.19989%)" offset="0.578125"/><stop stop-opacity="1" stop-color="rgb(79.998779%, 62.550354%, 24.900818%)" offset="0.59375"/><stop stop-opacity="1" stop-color="rgb(79.898071%, 62.30011%, 24.702454%)" offset="0.601562"/><stop stop-opacity="1" stop-color="rgb(79.698181%, 62.098694%, 24.694824%)" offset="0.609375"/><stop stop-opacity="1" stop-color="rgb(79.598999%, 61.999512%, 24.494934%)" offset="0.625"/><stop stop-opacity="1" stop-color="rgb(79.403687%, 61.804199%, 24.299622%)" offset="0.640625"/><stop stop-opacity="1" stop-color="rgb(79.203796%, 61.505127%, 24.200439%)" offset="0.648438"/><stop stop-opacity="1" stop-color="rgb(79.199219%, 61.300659%, 24.000549%)" offset="0.65625"/><stop stop-opacity="1" stop-color="rgb(79.005432%, 61.004639%, 23.704529%)" offset="0.6875"/><stop stop-opacity="1" stop-color="rgb(78.805542%, 60.707092%, 23.504639%)" offset="0.695313"/><stop stop-opacity="1" stop-color="rgb(78.797913%, 60.501099%, 23.497009%)" offset="0.703125"/><stop stop-opacity="1" stop-color="rgb(78.601074%, 60.398865%, 23.300171%)" offset="0.71875"/><stop stop-opacity="1" stop-color="rgb(78.40271%, 60.298157%, 23.001099%)" offset="0.726563"/><stop stop-opacity="1" stop-color="rgb(78.393555%, 60.098267%, 22.798157%)" offset="0.734375"/><stop stop-opacity="1" stop-color="rgb(78.193665%, 59.999084%, 22.698975%)" offset="0.75"/><stop stop-opacity="1" stop-color="rgb(77.999878%, 59.803772%, 22.55249%)" offset="0.765625"/><stop stop-opacity="1" stop-color="rgb(77.89917%, 59.5047%, 22.402954%)" offset="0.773438"/><stop stop-opacity="1" stop-color="rgb(77.69928%, 59.300232%, 22.395325%)" offset="0.78125"/><stop stop-opacity="1" stop-color="rgb(77.598572%, 59.199524%, 22.19696%)" offset="0.796875"/><stop stop-opacity="1" stop-color="rgb(77.598572%, 59.005737%, 22.000122%)" offset="0.8125"/><stop stop-opacity="1" stop-color="rgb(77.52533%, 58.708191%, 21.90094%)" offset="0.820312"/><stop stop-opacity="1" stop-color="rgb(77.375793%, 58.502197%, 21.70105%)" offset="0.828125"/><stop stop-opacity="1" stop-color="rgb(77.2995%, 58.399963%, 21.598816%)" offset="0.84375"/><stop stop-opacity="1" stop-color="rgb(77.197266%, 58.297729%, 21.498108%)" offset="0.851563"/><stop stop-opacity="1" stop-color="rgb(76.997375%, 58.093262%, 21.298218%)" offset="0.859375"/><stop stop-opacity="1" stop-color="rgb(76.898193%, 57.794189%, 21.199036%)" offset="0.875"/><stop stop-opacity="1" stop-color="rgb(76.702881%, 57.598877%, 21.003723%)" offset="0.890521"/><stop stop-opacity="1" stop-color="rgb(76.507568%, 57.598877%, 20.808411%)" offset="0.890625"/><stop stop-opacity="1" stop-color="rgb(76.502991%, 57.449341%, 20.704651%)" offset="0.898438"/><stop stop-opacity="1" stop-color="rgb(76.495361%, 57.295227%, 20.500183%)" offset="0.90625"/><stop stop-opacity="1" stop-color="rgb(76.296997%, 57.096863%, 20.399475%)" offset="0.921875"/><stop stop-opacity="1" stop-color="rgb(76.100159%, 56.900024%, 20.205688%)" offset="0.9375"/><stop stop-opacity="1" stop-color="rgb(76.098633%, 56.800842%, 20.005798%)" offset="0.945313"/><stop stop-opacity="1" stop-color="rgb(76.097107%, 56.600952%, 19.996643%)" offset="0.953125"/><stop stop-opacity="1" stop-color="rgb(75.900269%, 56.498718%, 19.799805%)" offset="0.96875"/><stop stop-opacity="1" stop-color="rgb(75.701904%, 56.39801%, 19.60144%)" offset="0.976562"/><stop stop-opacity="1" stop-color="rgb(75.694275%, 56.193542%, 19.593811%)" offset="0.984375"/><stop stop-opacity="1" stop-color="rgb(75.494385%, 55.89447%, 19.393921%)" offset="1"/></linearGradient></defs><g clip-path="url(#52fab5c73d)"><g clip-path="url(#37ccee1069)"><path fill="url(#5ce391b866)" d="M 425.535156 79.621094 L 425.535156 479.546875 L 1004.9375 479.546875 L 1004.9375 79.621094 Z M 425.535156 79.621094 " fill-rule="nonzero"/></g></g><path fill="#d7af4d" d="M 214.628906 592.289062 L 214.628906 528.773438 L 232.742188 528.773438 C 240.109375 528.773438 245.964844 530.027344 250.3125 532.515625 C 254.660156 535.023438 256.832031 538.765625 256.832031 543.746094 C 256.832031 547.246094 255.59375 550.3125 253.148438 552.921875 C 250.6875 555.503906 247.246094 557.453125 242.824219 558.78125 C 248.652344 559.867188 253.058594 561.84375 256.046875 564.695312 C 259.019531 567.5625 260.515625 570.671875 260.515625 574.054688 C 260.515625 577.433594 259.640625 580.332031 257.917969 582.75 C 256.183594 585.132812 253.964844 586.960938 251.277344 588.242188 C 245.84375 590.945312 240.289062 592.289062 234.613281 592.289062 Z M 223.929688 557.875 L 230.871094 557.875 C 236.667969 557.875 240.832031 556.589844 243.367188 554.011719 C 245.90625 551.398438 247.171875 548.136719 247.171875 544.230469 C 247.171875 541.617188 246.28125 539.25 244.515625 537.105469 C 242.734375 534.929688 240.046875 533.300781 236.425781 532.214844 C 232.078125 532.214844 227.914062 532.863281 223.929688 534.148438 Z M 223.929688 560.652344 L 223.929688 587.941406 C 225.980469 588.589844 229.136719 588.90625 233.40625 588.90625 C 237.707031 588.90625 241.511719 587.746094 244.816406 585.40625 C 248.152344 583.035156 249.828125 579.730469 249.828125 575.503906 C 249.828125 571.277344 247.988281 567.761719 244.335938 564.9375 C 240.710938 562.085938 236.335938 560.652344 231.234375 560.652344 Z M 223.929688 560.652344 " fill-opacity="1" fill-rule="nonzero"/><path fill="#d7af4d" d="M 268.734375 592.289062 L 297.230469 527.265625 L 298.679688 527.265625 L 327.175781 592.289062 L 316.671875 592.289062 L 309.484375 575.019531 L 280.988281 575.019531 L 273.925781 592.289062 Z M 282.4375 571.398438 L 307.976562 571.398438 L 295.296875 540.304688 Z M 282.4375 571.398438 " fill-opacity="1" fill-rule="nonzero"/><path fill="#d7af4d" d="M 336.734375 592.289062 L 336.734375 528.773438 L 346.152344 528.773438 L 346.152344 587.09375 C 350.046875 588.273438 353.167969 588.847656 355.507812 588.847656 L 372.898438 585.886719 L 371.75 592.289062 Z M 336.734375 592.289062 " fill-opacity="1" fill-rule="nonzero"/><path fill="#d7af4d" d="M 383.445312 592.289062 L 383.445312 528.773438 L 421.902344 528.773438 L 420.9375 535.234375 L 403.125 532.214844 C 399.988281 532.214844 396.515625 532.757812 392.742188 533.84375 L 392.742188 557.148438 L 414.054688 557.148438 L 414.054688 560.832031 L 392.742188 560.832031 L 392.742188 588.847656 L 422.507812 585.886719 L 421.542969 592.289062 Z M 383.445312 592.289062 " fill-opacity="1" fill-rule="nonzero"/><path fill="#d7af4d" d="M 429.679688 592.289062 L 458.175781 527.265625 L 459.625 527.265625 L 488.121094 592.289062 L 477.617188 592.289062 L 470.433594 575.019531 L 441.9375 575.019531 L 434.871094 592.289062 Z M 443.386719 571.398438 L 468.921875 571.398438 L 456.246094 540.304688 Z M 443.386719 571.398438 " fill-opacity="1" fill-rule="nonzero"/><path fill="#d7af4d" d="M 507.097656 561.980469 L 507.097656 592.289062 L 497.679688 592.289062 L 497.679688 528.773438 L 518.386719 528.773438 C 524.863281 528.773438 530.160156 530.222656 534.265625 533.121094 C 538.402344 535.988281 540.484375 539.761719 540.484375 544.472656 C 540.484375 549.179688 538.824219 552.90625 535.535156 555.640625 C 532.230469 558.34375 527.761719 560.199219 522.132812 561.195312 L 547.851562 592.289062 L 536.742188 593.617188 L 514.464844 561.980469 Z M 507.097656 559.082031 L 513.195312 559.082031 C 524.699219 559.082031 530.464844 554.554688 530.464844 545.496094 C 530.464844 543.925781 530.070312 542.207031 529.316406 540.304688 C 527.867188 536.289062 524.742188 533.632812 519.957031 532.335938 C 515.613281 532.335938 511.324219 532.878906 507.097656 533.964844 Z M 507.097656 559.082031 " fill-opacity="1" fill-rule="nonzero"/><path fill="#d7af4d" d="M 558.871094 528.773438 L 567.683594 528.773438 L 567.683594 592.289062 L 558.871094 592.289062 Z M 558.871094 528.773438 " fill-opacity="1" fill-rule="nonzero"/><path fill="#d7af4d" d="M 614.242188 593.433594 C 604.296875 593.433594 595.917969 590.761719 589.125 585.40625 C 582.363281 580.015625 578.984375 572.304688 578.984375 562.28125 C 578.984375 556.363281 580.101562 551.113281 582.363281 546.523438 C 584.613281 541.933594 587.554688 538.3125 591.179688 535.65625 C 598.542969 530.3125 606.785156 527.625 615.933594 527.625 C 621.246094 527.625 626.769531 528.59375 632.535156 530.523438 L 631.570312 537.042969 C 628.582031 535.761719 626.257812 534.796875 624.566406 534.148438 C 619.765625 532.425781 614.9375 531.550781 610.074219 531.550781 C 603.34375 533.089844 598.183594 536.425781 594.558594 541.574219 C 590.96875 546.691406 589.1875 553.074219 589.1875 560.710938 C 589.1875 570.128906 591.632812 577.375 596.550781 582.445312 C 601.503906 587.519531 607.992188 590.054688 616.054688 590.054688 C 624.097656 590.054688 630.121094 588.347656 634.105469 584.921875 L 634.105469 590.175781 C 628.582031 592.347656 621.96875 593.433594 614.242188 593.433594 Z M 614.242188 593.433594 " fill-opacity="1" fill-rule="nonzero"/><path fill="#d7af4d" d="M 669.558594 592.289062 L 669.558594 528.773438 L 708.015625 528.773438 L 707.050781 535.234375 L 689.242188 532.214844 C 686.101562 532.214844 682.628906 532.757812 678.855469 533.84375 L 678.855469 557.148438 L 700.167969 557.148438 L 700.167969 560.832031 L 678.855469 560.832031 L 678.855469 588.847656 L 708.621094 585.886719 L 707.65625 592.289062 Z M 669.558594 592.289062 " fill-opacity="1" fill-rule="nonzero"/><path fill="#d7af4d" d="M 730.34375 539.820312 C 730.34375 542.644531 731.445312 545.253906 733.664062 547.671875 C 735.867188 550.054688 738.554688 552.136719 741.695312 553.949219 C 744.863281 555.761719 748.035156 557.617188 751.171875 559.503906 C 754.3125 561.40625 756.984375 563.730469 759.203125 566.507812 C 761.40625 569.253906 762.523438 572.289062 762.523438 575.625 C 762.523438 580.863281 760.5625 585.148438 756.667969 588.484375 C 752.804688 591.789062 747.566406 593.433594 740.96875 593.433594 C 734.402344 593.433594 727.898438 592.195312 721.46875 589.691406 L 721.46875 585.164062 C 727.988281 588.421875 733.511719 590.054688 738.070312 590.054688 C 742.660156 590.054688 746.222656 588.953125 748.757812 586.734375 C 751.324219 584.484375 752.621094 581.390625 752.621094 577.433594 C 752.621094 574.75 751.550781 572.289062 749.421875 570.070312 C 747.324219 567.867188 744.773438 565.949219 741.753906 564.335938 C 738.765625 562.6875 735.777344 561 732.757812 559.261719 C 729.738281 557.542969 727.175781 555.367188 725.089844 552.742188 C 722.992188 550.085938 721.953125 546.871094 721.953125 543.082031 C 721.953125 539.308594 723.613281 535.777344 726.960938 532.515625 C 730.296875 529.257812 735.308594 527.625 741.996094 527.625 C 746.34375 527.625 751.835938 528.621094 758.480469 530.585938 L 757.511719 537.105469 C 748.894531 533.40625 741.511719 531.550781 735.355469 531.550781 C 732.003906 533.164062 730.34375 535.925781 730.34375 539.820312 Z M 730.34375 539.820312 " fill-opacity="1" fill-rule="nonzero"/><path fill="#d7af4d" d="M 798.464844 592.289062 L 789.167969 592.289062 L 789.167969 533.363281 C 786.996094 532.878906 784.820312 532.636719 782.648438 532.636719 L 769.667969 535.59375 L 769.125 528.773438 L 818.511719 528.773438 L 818.027344 535.59375 L 804.988281 532.636719 C 802.8125 532.636719 800.640625 532.878906 798.464844 533.363281 Z M 798.464844 592.289062 " fill-opacity="1" fill-rule="nonzero"/><path fill="#d7af4d" d="M 820.4375 592.289062 L 848.933594 527.265625 L 850.382812 527.265625 L 878.882812 592.289062 L 868.375 592.289062 L 861.191406 575.019531 L 832.695312 575.019531 L 825.628906 592.289062 Z M 834.144531 571.398438 L 859.683594 571.398438 L 847.003906 540.304688 Z M 834.144531 571.398438 " fill-opacity="1" fill-rule="nonzero"/><path fill="#d7af4d" d="M 910.109375 592.289062 L 900.8125 592.289062 L 900.8125 533.363281 C 898.636719 532.878906 896.464844 532.636719 894.289062 532.636719 L 881.308594 535.59375 L 880.765625 528.773438 L 930.152344 528.773438 L 929.671875 535.59375 L 916.628906 532.636719 C 914.457031 532.636719 912.28125 532.878906 910.109375 533.363281 Z M 910.109375 592.289062 " fill-opacity="1" fill-rule="nonzero"/><path fill="#d7af4d" d="M 939.753906 592.289062 L 939.753906 528.773438 L 978.210938 528.773438 L 977.246094 535.234375 L 959.433594 532.214844 C 956.296875 532.214844 952.824219 532.757812 949.050781 533.84375 L 949.050781 557.148438 L 970.363281 557.148438 L 970.363281 560.832031 L 949.050781 560.832031 L 949.050781 588.847656 L 978.816406 585.886719 L 977.847656 592.289062 Z M 939.753906 592.289062 " fill-opacity="1" fill-rule="nonzero"/><path fill="#d7af4d" d="M 993.234375 591.804688 C 992.222656 590.808594 991.722656 589.570312 991.722656 588.121094 C 991.722656 586.644531 992.222656 585.375 993.234375 584.316406 C 994.273438 583.230469 995.527344 582.6875 996.976562 582.6875 C 998.453125 582.6875 999.722656 583.230469 1000.78125 584.316406 C 1001.867188 585.375 1002.410156 586.644531 1002.410156 588.121094 C 1002.410156 589.570312 1001.867188 590.808594 1000.78125 591.804688 C 999.722656 592.800781 998.453125 593.3125 996.976562 593.3125 C 995.527344 593.3125 994.273438 592.800781 993.234375 591.804688 Z M 993.234375 591.804688 " fill-opacity="1" fill-rule="nonzero"/><path fill="#d7af4d" d="M 1046.917969 593.433594 C 1036.96875 593.433594 1028.59375 590.761719 1021.800781 585.40625 C 1015.039062 580.015625 1011.65625 572.304688 1011.65625 562.28125 C 1011.65625 556.363281 1012.773438 551.113281 1015.039062 546.523438 C 1017.289062 541.933594 1020.230469 538.3125 1023.855469 535.65625 C 1031.21875 530.3125 1039.460938 527.625 1048.609375 527.625 C 1053.921875 527.625 1059.445312 528.59375 1065.210938 530.523438 L 1064.246094 537.042969 C 1061.257812 535.761719 1058.933594 534.796875 1057.242188 534.148438 C 1052.441406 532.425781 1047.613281 531.550781 1042.75 531.550781 C 1036.019531 533.089844 1030.855469 536.425781 1027.234375 541.574219 C 1023.640625 546.691406 1021.863281 553.074219 1021.863281 560.710938 C 1021.863281 570.128906 1024.304688 577.375 1029.226562 582.445312 C 1034.179688 587.519531 1040.667969 590.054688 1048.726562 590.054688 C 1056.773438 590.054688 1062.796875 588.347656 1066.78125 584.921875 L 1066.78125 590.175781 C 1061.257812 592.347656 1054.644531 593.433594 1046.917969 593.433594 Z M 1046.917969 593.433594 " fill-opacity="1" fill-rule="nonzero"/><path fill="#d7af4d" d="M 1107.113281 527.625 C 1115.445312 527.625 1122.328125 530.375 1127.761719 535.835938 C 1133.195312 541.316406 1135.910156 548.910156 1135.910156 558.597656 C 1135.910156 564.878906 1134.824219 570.371094 1132.652344 575.082031 C 1130.476562 579.789062 1127.640625 583.414062 1124.140625 585.949219 C 1117.285156 590.945312 1109.738281 593.433594 1101.5 593.433594 C 1093.242188 593.433594 1086.40625 590.6875 1080.96875 585.164062 C 1075.566406 579.609375 1072.878906 571.988281 1072.878906 562.28125 C 1072.878906 557.210938 1073.605469 552.652344 1075.054688 548.578125 C 1076.503906 544.515625 1078.390625 541.210938 1080.730469 538.675781 C 1083.054688 536.109375 1085.753906 533.949219 1088.820312 532.214844 C 1094.449219 529.164062 1100.546875 527.625 1107.113281 527.625 Z M 1087.851562 581.359375 C 1089.5 584.183594 1091.730469 586.371094 1094.554688 587.941406 C 1097.363281 589.511719 1100.609375 590.296875 1104.273438 590.296875 C 1107.972656 590.296875 1111.25 589.375 1114.117188 587.519531 C 1117.015625 585.632812 1119.261719 583.203125 1120.878906 580.210938 C 1124.140625 574.175781 1125.769531 567.714844 1125.769531 560.832031 C 1125.769531 552.304688 1124.046875 545.46875 1120.636719 540.304688 C 1116.894531 534.480469 1110.644531 531.550781 1101.921875 531.550781 C 1095.71875 533.722656 1091.007812 537.46875 1087.792969 542.78125 C 1084.609375 548.09375 1083.023438 554.117188 1083.023438 560.832031 C 1083.023438 569.011719 1084.625 575.851562 1087.851562 581.359375 Z M 1087.851562 581.359375 " fill-opacity="1" fill-rule="nonzero"/><path fill="#d7af4d" d="M 1181.660156 577.253906 L 1202.851562 528.773438 L 1212.632812 528.773438 L 1216.195312 592.289062 L 1206.414062 592.289062 L 1203.816406 537.707031 L 1203.457031 537.707031 L 1179.246094 592.289062 L 1177.917969 592.289062 L 1154.191406 539.882812 L 1153.828125 539.882812 L 1151.230469 592.289062 L 1147.003906 592.289062 L 1150.566406 528.773438 L 1159.503906 528.773438 Z M 1181.660156 577.253906 " fill-opacity="1" fill-rule="nonzero"/><path fill="#d7af4d" d="M 519.078125 679.480469 L 515.214844 679.480469 L 515.214844 688.355469 L 512.4375 688.355469 L 512.4375 666.378906 L 518.59375 666.378906 C 520.769531 666.378906 522.398438 666.953125 523.484375 668.070312 C 524.601562 669.199219 525.175781 670.832031 525.175781 672.957031 C 525.175781 674.332031 524.875 675.523438 524.269531 676.519531 C 523.667969 677.53125 522.820312 678.300781 521.734375 678.816406 L 525.960938 688.171875 L 525.960938 688.355469 L 523.003906 688.355469 Z M 515.214844 677.0625 L 518.59375 677.0625 C 519.757812 677.0625 520.679688 676.703125 521.371094 675.976562 C 522.050781 675.222656 522.398438 674.210938 522.398438 672.957031 C 522.398438 670.152344 521.101562 668.734375 518.535156 668.734375 L 515.214844 668.734375 Z M 515.214844 677.0625 " fill-opacity="1" fill-rule="nonzero"/><path fill="#d7af4d" d="M 547.105469 678.210938 L 539.316406 678.210938 L 539.316406 686 L 548.375 686 L 548.375 688.355469 L 536.539062 688.355469 L 536.539062 666.378906 L 548.253906 666.378906 L 548.253906 668.734375 L 539.316406 668.734375 L 539.316406 675.796875 L 547.105469 675.796875 Z M 547.105469 678.210938 " fill-opacity="1" fill-rule="nonzero"/><path fill="#d7af4d" d="M 569.851562 682.617188 L 562.425781 682.617188 L 560.734375 688.355469 L 557.898438 688.355469 L 564.960938 666.378906 L 567.316406 666.378906 L 574.441406 688.355469 L 571.605469 688.355469 Z M 563.152344 680.203125 L 569.128906 680.203125 L 566.167969 670.242188 Z M 563.152344 680.203125 " fill-opacity="1" fill-rule="nonzero"/><path fill="#d7af4d" d="M 587.871094 686 L 596.507812 686 L 596.507812 688.355469 L 585.09375 688.355469 L 585.09375 666.378906 L 587.871094 666.378906 Z M 587.871094 686 " fill-opacity="1" fill-rule="nonzero"/><path fill="#d7af4d" d="M 632.820312 678.210938 L 625.03125 678.210938 L 625.03125 686 L 634.089844 686 L 634.089844 688.355469 L 622.253906 688.355469 L 622.253906 666.378906 L 633.96875 666.378906 L 633.96875 668.734375 L 625.03125 668.734375 L 625.03125 675.796875 L 632.820312 675.796875 Z M 632.820312 678.210938 " fill-opacity="1" fill-rule="nonzero"/><path fill="#d7af4d" d="M 654.902344 682.800781 C 654.902344 681.714844 654.601562 680.898438 653.996094 680.324219 C 653.425781 679.722656 652.367188 679.148438 650.796875 678.574219 C 649.257812 678.015625 648.082031 677.425781 647.234375 676.824219 C 646.421875 676.21875 645.816406 675.539062 645.425781 674.769531 C 645.015625 673.96875 644.820312 673.066406 644.820312 672.054688 C 644.820312 670.332031 645.394531 668.898438 646.570312 667.765625 C 647.734375 666.648438 649.242188 666.074219 651.101562 666.074219 C 652.382812 666.074219 653.53125 666.378906 654.542969 666.980469 C 655.539062 667.554688 656.308594 668.355469 656.835938 669.398438 C 657.394531 670.40625 657.679688 671.511719 657.679688 672.71875 L 654.902344 672.71875 C 654.902344 671.359375 654.570312 670.300781 653.9375 669.578125 C 653.289062 668.824219 652.335938 668.429688 651.101562 668.429688 C 650.011719 668.429688 649.136719 668.761719 648.503906 669.398438 C 647.898438 670 647.597656 670.875 647.597656 671.992188 C 647.597656 672.929688 647.914062 673.714844 648.5625 674.347656 C 649.242188 674.953125 650.285156 675.523438 651.703125 676.039062 C 653.832031 676.730469 655.355469 677.59375 656.292969 678.632812 C 657.257812 679.691406 657.742188 681.050781 657.742188 682.738281 C 657.742188 684.550781 657.152344 686 655.992188 687.085938 C 654.8125 688.144531 653.242188 688.65625 651.28125 688.65625 C 649.984375 688.65625 648.804688 688.371094 647.71875 687.8125 C 646.632812 687.253906 645.757812 686.46875 645.121094 685.457031 C 644.519531 684.460938 644.21875 683.28125 644.21875 681.953125 L 646.996094 681.953125 C 646.996094 683.328125 647.371094 684.398438 648.140625 685.15625 C 648.894531 685.925781 649.953125 686.300781 651.28125 686.300781 C 652.488281 686.300781 653.394531 686 653.996094 685.394531 C 654.601562 684.761719 654.902344 683.886719 654.902344 682.800781 Z M 654.902344 682.800781 " fill-opacity="1" fill-rule="nonzero"/><path fill="#d7af4d" d="M 681.875 668.734375 L 676.078125 668.734375 L 676.078125 688.355469 L 673.359375 688.355469 L 673.359375 668.734375 L 667.566406 668.734375 L 667.566406 666.378906 L 681.875 666.378906 Z M 681.875 668.734375 " fill-opacity="1" fill-rule="nonzero"/><path fill="#d7af4d" d="M 703.0625 682.617188 L 695.636719 682.617188 L 693.949219 688.355469 L 691.109375 688.355469 L 698.171875 666.378906 L 700.527344 666.378906 L 707.652344 688.355469 L 704.816406 688.355469 Z M 696.363281 680.203125 L 702.339844 680.203125 L 699.382812 670.242188 Z M 696.363281 680.203125 " fill-opacity="1" fill-rule="nonzero"/><path fill="#d7af4d" d="M 731.167969 668.734375 L 725.371094 668.734375 L 725.371094 688.355469 L 722.652344 688.355469 L 722.652344 668.734375 L 716.859375 668.734375 L 716.859375 666.378906 L 731.167969 666.378906 Z M 731.167969 668.734375 " fill-opacity="1" fill-rule="nonzero"/><path fill="#d7af4d" d="M 752.664062 678.210938 L 744.875 678.210938 L 744.875 686 L 753.929688 686 L 753.929688 688.355469 L 742.097656 688.355469 L 742.097656 666.378906 L 753.808594 666.378906 L 753.808594 668.734375 L 744.875 668.734375 L 744.875 675.796875 L 752.664062 675.796875 Z M 752.664062 678.210938 " fill-opacity="1" fill-rule="nonzero"/><path fill="#d7af4d" d="M 790.183594 682.617188 L 782.753906 682.617188 L 781.066406 688.355469 L 778.226562 688.355469 L 785.292969 666.378906 L 787.644531 666.378906 L 794.769531 688.355469 L 791.933594 688.355469 Z M 783.480469 680.203125 L 789.457031 680.203125 L 786.5 670.242188 Z M 783.480469 680.203125 " fill-opacity="1" fill-rule="nonzero"/><path fill="#d7af4d" d="M 819.195312 685.636719 L 818.710938 686.242188 C 817.335938 687.855469 815.300781 688.65625 812.613281 688.65625 C 810.226562 688.65625 808.355469 687.871094 806.996094 686.300781 C 805.667969 684.730469 804.976562 682.5 804.945312 679.601562 L 804.945312 675.3125 C 804.945312 672.21875 805.550781 669.910156 806.757812 668.371094 C 807.996094 666.847656 809.851562 666.074219 812.3125 666.074219 C 814.394531 666.074219 816.023438 666.664062 817.203125 667.828125 C 818.410156 669.003906 819.074219 670.664062 819.195312 672.839844 L 816.417969 672.839844 C 816.324219 671.480469 815.949219 670.40625 815.269531 669.636719 C 814.621094 668.839844 813.65625 668.429688 812.371094 668.429688 C 810.757812 668.429688 809.59375 668.960938 808.871094 670 C 808.144531 671.058594 807.753906 672.703125 807.722656 674.953125 L 807.722656 679.417969 C 807.722656 681.636719 808.144531 683.34375 808.992188 684.550781 C 809.835938 685.726562 811.042969 686.300781 812.613281 686.300781 C 814.09375 686.300781 815.238281 685.941406 816.054688 685.214844 L 816.417969 684.851562 L 816.417969 679.78125 L 812.433594 679.78125 L 812.433594 677.425781 L 819.195312 677.425781 Z M 819.195312 685.636719 " fill-opacity="1" fill-rule="nonzero"/><path fill="#d7af4d" d="M 841.953125 678.210938 L 834.164062 678.210938 L 834.164062 686 L 843.21875 686 L 843.21875 688.355469 L 831.386719 688.355469 L 831.386719 666.378906 L 843.097656 666.378906 L 843.097656 668.734375 L 834.164062 668.734375 L 834.164062 675.796875 L 841.953125 675.796875 Z M 841.953125 678.210938 " fill-opacity="1" fill-rule="nonzero"/><path fill="#d7af4d" d="M 868.804688 688.355469 L 866.027344 688.355469 L 857.210938 671.390625 L 857.210938 688.355469 L 854.433594 688.355469 L 854.433594 666.378906 L 857.210938 666.378906 L 866.085938 683.402344 L 866.085938 666.378906 L 868.804688 666.378906 Z M 868.804688 688.355469 " fill-opacity="1" fill-rule="nonzero"/><path fill="#d7af4d" d="M 895.097656 681.351562 C 894.976562 683.734375 894.3125 685.546875 893.105469 686.785156 C 891.898438 688.039062 890.175781 688.65625 887.972656 688.65625 C 885.800781 688.65625 884.046875 687.839844 882.71875 686.179688 C 881.421875 684.492188 880.789062 682.195312 880.789062 679.296875 L 880.789062 675.3125 C 880.789062 672.460938 881.453125 670.210938 882.78125 668.550781 C 884.109375 666.90625 885.933594 666.074219 888.273438 666.074219 C 890.355469 666.074219 891.988281 666.726562 893.164062 668.007812 C 894.328125 669.261719 894.976562 671.070312 895.097656 673.441406 L 892.257812 673.441406 C 892.136719 671.628906 891.746094 670.347656 891.113281 669.578125 C 890.507812 668.824219 889.558594 668.429688 888.273438 668.429688 C 886.734375 668.429688 885.574219 669.035156 884.773438 670.242188 C 883.957031 671.417969 883.566406 673.125 883.566406 675.375 L 883.566406 679.417969 C 883.566406 681.636719 883.941406 683.34375 884.710938 684.550781 C 885.464844 685.726562 886.554688 686.300781 887.972656 686.300781 C 889.421875 686.300781 890.460938 685.941406 891.113281 685.214844 C 891.746094 684.492188 892.136719 683.207031 892.257812 681.351562 Z M 895.097656 681.351562 " fill-opacity="1" fill-rule="nonzero"/><path fill="#d7af4d" d="M 912.226562 677.425781 L 916.753906 666.378906 L 919.832031 666.378906 L 913.617188 680.144531 L 913.617188 688.355469 L 910.839844 688.355469 L 910.839844 680.144531 L 904.621094 666.378906 L 907.757812 666.378906 Z M 912.226562 677.425781 " fill-opacity="1" fill-rule="nonzero"/></svg>